# xmcd
#
# Track frame offsets:
#	150
#	21503
#	36174
#	50556
#	67925
#	80313
#	99171
#	112155
#	127169
#	140708
#	166991
#	184677
#	200519
#	217278
#	232558
#	247829
#	269977
#
# Disc length: 3931 seconds
# Revision: 0
# Processed by: cddbd v1.5.2PL0 Copyright (c) Steve Scherf et al.
# Submitted via: dBpowerAMP V12.0
#
DISCID=fb0f5911
DTITLE=Various Artist - Greatest Ever! 70s Groove
DYEAR=1900
DGENRE=Soul
TTITLE0=Ohio Players - Love Rollercoaster
TTITLE1=Isaac Hayes - Theme From Shaft
TTITLE2=James Brown Feat. The J.B.s - The Boss
TTITLE3=Bobby Womack and Peace - Across 110th Street
TTITLE4=The Fatback Band - (Are You Ready) Do The Bus Stop
TTITLE5=Aaron Neville - Hercules
TTITLE6=Dr. John - Right Place Wrong Time
TTITLE7=Joe Simon - Step By Step
TTITLE8=The Real Thing - Can You Feel The Force
TTITLE9=Bob James - Night On Bald Mountain
TTITLE10=The Sugarhill Gang - Rapper's Delight
TTITLE11=The Main Ingredient - Black Seeds Keep On Growing
TTITLE12=Eddie Kendricks - Boogie Down
TTITLE13=Joe Tex - Ain't Gonna Bump No More (With No Big Fat Woman)
TTITLE14=Lyn Collins - Rock Me Again and Again and Again and Again and Again and Again
TTITLE15=Osibisa - Sunshine Day
TTITLE16=Silver Connection - Fly Robin Fly
EXTD=
EXTT0=
EXTT1=
EXTT2=
EXTT3=
EXTT4=
EXTT5=
EXTT6=
EXTT7=
EXTT8=
EXTT9=
EXTT10=
EXTT11=
EXTT12=
EXTT13=
EXTT14=
EXTT15=
EXTT16=
PLAYORDER=
